<svg xmlns="http://www.w3.org/2000/svg" width="20" height="20" viewBox="0 0 20 20">
  <g id="Vector_Smart_Object" data-name="Vector Smart Object" transform="translate(-664.257 -202.76)">
    <g id="Group_1" data-name="Group 1">
      <path id="Path_2" data-name="Path 2" d="M664.257,216.053v-6.587a1.18,1.18,0,0,0,.032-.188,10.7,10.7,0,0,1,.247-2.3,5.1,5.1,0,0,1,3.039-3.644,7.635,7.635,0,0,1,2.765-.53c.208-.009.416-.03.624-.045h6.587a1.509,1.509,0,0,0,.188.032,10.63,10.63,0,0,1,2.3.247,5.1,5.1,0,0,1,3.644,3.038,7.642,7.642,0,0,1,.53,2.766c.009.208.03.415.045.623v6.587a1.593,1.593,0,0,0-.032.188,10.621,10.621,0,0,1-.247,2.3,5.1,5.1,0,0,1-3.039,3.645,7.63,7.63,0,0,1-2.765.53c-.208.009-.415.029-.623.045h-6.587a1.225,1.225,0,0,0-.187-.032,10.7,10.7,0,0,1-2.3-.247,5.1,5.1,0,0,1-3.645-3.039,7.636,7.636,0,0,1-.53-2.765C664.293,216.469,664.273,216.261,664.257,216.053Zm18.212-3.295h-.032c0-.833.017-1.667,0-2.5-.019-.785-.049-1.573-.129-2.353a3.542,3.542,0,0,0-.844-2.016,3.661,3.661,0,0,0-2.666-1.218c-1.174-.071-2.35-.089-3.526-.1s-2.341-.009-3.51.015c-.785.016-1.573.049-2.354.129a3.551,3.551,0,0,0-2.016.843,3.665,3.665,0,0,0-1.218,2.668c-.071,1.173-.088,2.35-.1,3.526s-.01,2.341.014,3.51c.016.785.05,1.573.129,2.353a3.56,3.56,0,0,0,.844,2.016,3.656,3.656,0,0,0,2.668,1.217c1.173.072,2.35.089,3.525.1s2.341.015,3.51-.016a19.913,19.913,0,0,0,2.586-.172,3.261,3.261,0,0,0,2.829-2.514,6.494,6.494,0,0,0,.211-1.446C682.433,215.455,682.443,214.106,682.469,212.758Z" fill="#272727"/>
      <path id="Path_3" data-name="Path 3" d="M679.4,212.764a5.139,5.139,0,1,1-5.125-5.143A5.136,5.136,0,0,1,679.4,212.764Zm-5.142,3.323a3.327,3.327,0,1,0-3.324-3.335A3.335,3.335,0,0,0,674.254,216.087Z" fill="#272727"/>
      <path id="Path_4" data-name="Path 4" d="M679.583,206.219a1.206,1.206,0,1,1-1.2,1.2A1.2,1.2,0,0,1,679.583,206.219Z" fill="#272727"/>
    </g>
  </g>
</svg>
