<svg xmlns="http://www.w3.org/2000/svg" width="20" height="19.999" viewBox="0 0 20 19.999">
  <g id="Vector_Smart_Object" data-name="Vector Smart Object" transform="translate(-211.757 -150.295)">
    <path id="Path_6" data-name="Path 6" d="M221.757,150.295a10,10,0,0,0-4.013,19.158,8.8,8.8,0,0,1,.174-2.3l1.286-5.448a3.839,3.839,0,0,1-.32-1.583c0-1.482.86-2.588,1.929-2.588a1.34,1.34,0,0,1,1.35,1.5,21.508,21.508,0,0,1-.883,3.548,1.547,1.547,0,0,0,1.578,1.926c1.894,0,3.17-2.433,3.17-5.316,0-2.191-1.477-3.831-4.16-3.831a4.735,4.735,0,0,0-4.924,4.787,2.884,2.884,0,0,0,.659,1.961.488.488,0,0,1,.145.559c-.048.182-.158.627-.2.8a.345.345,0,0,1-.5.25c-1.4-.57-2.047-2.1-2.047-3.821,0-2.84,2.394-6.248,7.146-6.248,3.818,0,6.33,2.765,6.33,5.729,0,3.924-2.18,6.853-5.4,6.853a2.866,2.866,0,0,1-2.442-1.245s-.581,2.3-.7,2.748a8.3,8.3,0,0,1-1.007,2.141,10,10,0,1,0,2.834-19.589" fill="#272727"/>
  </g>
</svg>
