<svg xmlns="http://www.w3.org/2000/svg" width="20" height="15.999" viewBox="0 0 20 15.999">
  <g id="Vector_Smart_Object" data-name="Vector Smart Object" transform="translate(-151.496 -150.531)">
    <path id="Path_5" data-name="Path 5" d="M171.5,152.425a8.292,8.292,0,0,1-2.357.636,4.049,4.049,0,0,0,1.8-2.234,8.287,8.287,0,0,1-2.606.979,4.126,4.126,0,0,0-2.995-1.275,4.072,4.072,0,0,0-4.1,4.039,3.964,3.964,0,0,0,.106.92,11.707,11.707,0,0,1-8.457-4.221,4,4,0,0,0,1.27,5.394,4.147,4.147,0,0,1-1.859-.5v.05a4.055,4.055,0,0,0,3.292,3.96,4.065,4.065,0,0,1-1.081.142,4.124,4.124,0,0,1-.771-.072,4.094,4.094,0,0,0,3.832,2.8,8.31,8.31,0,0,1-5.095,1.73,8.537,8.537,0,0,1-.979-.055,11.764,11.764,0,0,0,6.29,1.813,11.5,11.5,0,0,0,11.673-11.491c0-.176,0-.351-.011-.523a8.253,8.253,0,0,0,2.047-2.09" fill="#272727"/>
  </g>
</svg>
